<svg width="16" height="16" viewBox="0 0 16 16" fill="none" xmlns="http://www.w3.org/2000/svg">
<g clip-path="url(#clip0_570_12838)">
<path d="M8 16C12.4183 16 16 12.4183 16 8C16 3.58172 12.4183 0 8 0C3.58172 0 0 3.58172 0 8C0 12.4183 3.58172 16 8 16Z" fill="#F0F0F0"/>
<path d="M16.0001 7.99948C16.0001 4.55976 13.8291 1.62741 10.7827 0.49707V15.5019C13.8291 14.3715 16.0001 11.4392 16.0001 7.99948Z" fill="#D80027"/>
<path d="M0 7.99972C0 11.4394 2.171 14.3718 5.21741 15.5021V0.497314C2.171 1.62766 0 4.56 0 7.99972Z" fill="#6DA544"/>
</g>
<defs>
<clipPath id="clip0_570_12838">
<rect width="16" height="16" fill="white"/>
</clipPath>
</defs>
</svg>
